<?xml version="1.0" standalone="no"?><!DOCTYPE svg PUBLIC "-//W3C//DTD SVG 1.1//EN" "http://www.w3.org/Graphics/SVG/1.1/DTD/svg11.dtd"><svg t="1564566500444" class="icon" viewBox="0 0 1024 1024" version="1.1" xmlns="http://www.w3.org/2000/svg" p-id="11461" xmlns:xlink="http://www.w3.org/1999/xlink" width="64" height="64"><defs><style type="text/css"></style></defs><path d="M596.757894 825.357847c0 31.205723-25.300222 56.505945-56.505945 56.505945l-56.505945 0c-31.205723 0-56.505945-25.300222-56.505945-56.505945l0-343.738785c0-31.204699 25.300222-56.505945 56.505945-56.505945l56.505945 0c31.205723 0 56.505945 25.301246 56.505945 56.505945L596.757894 825.357847z" p-id="11462"></path><path d="M596.757894 222.638683c0 46.808072-37.937031 84.758406-84.758406 84.758406-46.821375 0-84.759429-37.950334-84.759429-84.758406 0-46.808072 37.937031-84.759429 84.759429-84.759429C558.820863 137.879254 596.757894 175.829588 596.757894 222.638683z" p-id="11463"></path></svg>